# xmcd
#
# Track frame offsets: 
#        150
#        17470
#        36670
#        54355
#        72322
#        88665
#        108168
#        125009
#        141161
#        159189
#        175974
#        192946
#        213441
#        231048
#        247281
#        266485
#        287262
#        304498
#
# Disc length: 4335 seconds
#
# Revision: 4
# Processed by: cddbd v1.5.2PL0 Copyright (c) Steve Scherf et al.
# Submitted via: ExactAudioCopy v0.99pb4
#
DISCID=0410ed12
DTITLE=C.C. Tennissen - Die Zeit ist reif (LC 06622)
DYEAR=2009
DGENRE=Deutsch Country
TTITLE0=Ich werd nun geh'n my sweet love
TTITLE1=Mississippi (Du hörst mein Lied)
TTITLE2=Starke Gefühle (I saw the light)
TTITLE3=Bunte Welt
TTITLE4=Am Tag als Conny Cramer starb
TTITLE5=Du bist frei
TTITLE6=Sowas hab ich noch nie erlebt
TTITLE7=Ich kann nicht lachen wenn Du traurig bist
TTITLE8=Ich will nur träumen
TTITLE9=So schöne Jahre Der Grund bist Du
TTITLE10=Rette mich Ich liebe Dich
TTITLE11=Wer liebe sucht ... Stand by your man
TTITLE12=Ich geh gern mal einen Schritt zu weit
TTITLE13=Ich könnt mit den Wölfen heulen
TTITLE14=Missisippi ( DJLK-Mix by Basic Music)
TTITLE15=Wer liebe sucht ( DJLK13-Mix by Basic Music )
TTITLE16=Rette mich - Ich liebe Dich ( Pop-Mix Basic Music )
TTITLE17=Ich werd nun geh'n my sweet love ( Mixed by Basic Music )
EXTD=Charlie
EXTT0=
EXTT1=
EXTT2=
EXTT3=
EXTT4=
EXTT5=
EXTT6=
EXTT7=
EXTT8=
EXTT9=
EXTT10=
EXTT11=
EXTT12=
EXTT13=
EXTT14=
EXTT15=
EXTT16=
EXTT17=
PLAYORDER=
